<svg xmlns="http://www.w3.org/2000/svg" height="108.73684172551054" width="143.63157898039037" style=""><rect id="backgroundrect" width="100%" height="100%" x="0" y="0" fill="none" stroke="none" class="" style=""/><g class="currentLayer" style=""><title>Layer 1</title><path d="m71.0460064086914,62.05600152587891 v11.192 h-1.972 v-8.909 l-1.919,0.5810000000000001 l-0.48200000000000004,-1.229 l3.035,-1.6300000000000001 h1.338 zm10.918,1.351 c0.36900000000000005,0.48700000000000004 0.6620000000000001,1.106 0.8790000000000001,1.867 c0.21800000000000003,0.7610000000000001 0.32600000000000007,1.612 0.32600000000000007,2.552 c0,0.979 -0.10800000000000001,1.8250000000000002 -0.32600000000000007,2.548 c-0.21700000000000003,0.7230000000000001 -0.506,1.322 -0.8640000000000001,1.795 c-0.35900000000000004,0.47900000000000004 -0.775,0.8330000000000001 -1.248,1.064 c-0.47300000000000003,0.23600000000000002 -0.9640000000000001,0.35000000000000003 -1.475,0.35000000000000003 a2.848,2.848 0 0 1 -1.5030000000000001,-0.42600000000000005 c-0.47300000000000003,-0.28300000000000003 -0.8800000000000001,-0.6810000000000002 -1.234,-1.195 c-0.35000000000000003,-0.516 -0.6280000000000001,-1.13 -0.8310000000000001,-1.8530000000000002 a8.714,8.714 0 0 1 -0.30800000000000005,-2.387 c0,-0.8700000000000001 0.10400000000000001,-1.6680000000000001 0.31600000000000006,-2.396 c0.21300000000000002,-0.7230000000000001 0.49100000000000005,-1.347 0.8460000000000001,-1.867 s0.7670000000000001,-0.926 1.234,-1.215 a2.7800000000000002,2.7800000000000002 0 0 1 1.483,-0.43500000000000005 c0.29800000000000004,0 0.5720000000000001,0.03300000000000001 0.8230000000000001,0.09900000000000003 c0.25,0.06600000000000002 0.48600000000000004,0.17 0.7040000000000001,0.30300000000000005 c0.21800000000000003,0.132 0.42500000000000004,0.29700000000000004 0.6140000000000001,0.49600000000000005 c0.19000000000000003,0.20400000000000001 0.37900000000000006,0.43600000000000005 0.5640000000000001,0.7000000000000001 zm-1.3050000000000002,1.267 a2.127,2.127 0 0 0 -0.5810000000000001,-0.8180000000000001 a1.243,1.243 0 0 0 -0.809,-0.29700000000000004 c-0.265,0 -0.516,0.09400000000000003 -0.7520000000000001,0.28300000000000003 s-0.44300000000000006,0.458 -0.6280000000000001,0.804 c-0.18000000000000002,0.3450000000000001 -0.32600000000000007,0.7610000000000001 -0.43600000000000005,1.243 a7.405,7.405 0 0 0 -0.16000000000000003,1.612 c0,0.10400000000000001 0.005000000000000001,0.22200000000000003 0.010000000000000002,0.35000000000000003 c0.005000000000000001,0.127 0.014000000000000002,0.26 0.023000000000000007,0.39200000000000007 l0.028000000000000004,0.38300000000000006 c0.010000000000000002,0.12300000000000001 0.019000000000000003,0.22700000000000004 0.03300000000000001,0.30700000000000005 zm-2.769,6.003 c0.14600000000000002,0.3450000000000001 0.3410000000000001,0.6190000000000001 0.5810000000000001,0.8180000000000001 c0.24100000000000002,0.19800000000000004 0.511,0.29800000000000004 0.809,0.29800000000000004 c0.265,0 0.515,-0.09600000000000003 0.7510000000000001,-0.28400000000000003 s0.44500000000000006,-0.453 0.6290000000000001,-0.799 c0.18000000000000002,-0.3400000000000001 0.32600000000000007,-0.7560000000000001 0.43500000000000005,-1.238 a7.2940000000000005,7.2940000000000005 0 0 0 0.16100000000000003,-1.6070000000000002 c0,-0.10400000000000001 -0.005000000000000001,-0.22200000000000003 -0.010000000000000002,-0.35400000000000004 c-0.004000000000000001,-0.132 -0.014000000000000002,-0.265 -0.023000000000000007,-0.39300000000000007 l-0.028000000000000004,-0.37800000000000006 a13.012,13.012 0 0 0 -0.028000000000000004,-0.31200000000000006 zm13.522,-7.27 c0.36900000000000005,0.48700000000000004 0.6620000000000001,1.106 0.8800000000000001,1.867 c0.21700000000000003,0.7610000000000001 0.32500000000000007,1.612 0.32500000000000007,2.552 c0,0.979 -0.10800000000000001,1.8250000000000002 -0.32500000000000007,2.548 c-0.21800000000000003,0.7230000000000001 -0.506,1.322 -0.8650000000000001,1.795 c-0.35900000000000004,0.47900000000000004 -0.775,0.8330000000000001 -1.248,1.064 c-0.47300000000000003,0.23600000000000002 -0.9640000000000001,0.35000000000000003 -1.475,0.35000000000000003 a2.848,2.848 0 0 1 -1.5030000000000001,-0.42600000000000005 c-0.47300000000000003,-0.28300000000000003 -0.8790000000000001,-0.6810000000000002 -1.233,-1.195 c-0.35100000000000003,-0.516 -0.6290000000000001,-1.13 -0.8320000000000001,-1.8530000000000002 a8.753,8.753 0 0 1 -0.30800000000000005,-2.387 c0,-0.8700000000000001 0.10400000000000001,-1.6680000000000001 0.31600000000000006,-2.396 c0.21300000000000002,-0.7230000000000001 0.49200000000000005,-1.347 0.8470000000000001,-1.867 s0.7660000000000001,-0.926 1.233,-1.215 a2.7800000000000002,2.7800000000000002 0 0 1 1.484,-0.43500000000000005 c0.29800000000000004,0 0.5720000000000001,0.03300000000000001 0.8220000000000001,0.09900000000000003 s0.48600000000000004,0.17 0.7040000000000001,0.30300000000000005 c0.21800000000000003,0.132 0.42600000000000005,0.29700000000000004 0.6150000000000001,0.49600000000000005 c0.19000000000000003,0.20400000000000001 0.37900000000000006,0.43600000000000005 0.5630000000000001,0.7000000000000001 zm-1.304,1.267 a2.14,2.14 0 0 0 -0.5820000000000001,-0.8180000000000001 a1.243,1.243 0 0 0 -0.809,-0.29700000000000004 c-0.264,0 -0.515,0.09400000000000003 -0.7510000000000001,0.28300000000000003 s-0.44400000000000006,0.458 -0.6290000000000001,0.804 c-0.18000000000000002,0.3450000000000001 -0.32600000000000007,0.7610000000000001 -0.43500000000000005,1.243 a7.402,7.402 0 0 0 -0.16100000000000003,1.612 c0,0.10400000000000001 0.005000000000000001,0.22200000000000003 0.010000000000000002,0.35000000000000003 c0.005000000000000001,0.127 0.014000000000000002,0.26 0.023000000000000007,0.39200000000000007 l0.028000000000000004,0.38300000000000006 c0.010000000000000002,0.12300000000000001 0.020000000000000004,0.22700000000000004 0.03300000000000001,0.30700000000000005 zm-2.775,6.003 c0.14600000000000002,0.3450000000000001 0.3410000000000001,0.6190000000000001 0.5820000000000001,0.8180000000000001 c0.24100000000000002,0.19800000000000004 0.51,0.29800000000000004 0.809,0.29800000000000004 c0.264,0 0.515,-0.09600000000000003 0.7510000000000001,-0.28400000000000003 s0.44400000000000006,-0.453 0.6290000000000001,-0.799 c0.18000000000000002,-0.3400000000000001 0.32600000000000007,-0.7560000000000001 0.43500000000000005,-1.238 a7.355,7.355 0 0 0 0.16100000000000003,-1.6070000000000002 c0,-0.10400000000000001 -0.005000000000000001,-0.22200000000000003 -0.010000000000000002,-0.35400000000000004 s-0.015000000000000003,-0.265 -0.023000000000000007,-0.39300000000000007 c-0.010000000000000002,-0.132 -0.020000000000000004,-0.255 -0.028000000000000004,-0.37800000000000006 l-0.029000000000000005,-0.31200000000000006 zm12.054,-8.621 v11.192 h-1.972 v-8.909 l-1.919,0.5810000000000001 l-0.48200000000000004,-1.229 l3.035,-1.6300000000000001 h1.338 zm10.923,1.351 c0.36800000000000005,0.48700000000000004 0.6610000000000001,1.106 0.8790000000000001,1.867 s0.32600000000000007,1.612 0.32600000000000007,2.552 c0,0.979 -0.10800000000000001,1.8250000000000002 -0.32600000000000007,2.548 s-0.505,1.322 -0.8650000000000001,1.795 c-0.35800000000000004,0.47900000000000004 -0.774,0.8330000000000001 -1.247,1.064 a3.26,3.26 0 0 1 -1.475,0.35000000000000003 a2.848,2.848 0 0 1 -1.5030000000000001,-0.42600000000000005 c-0.47300000000000003,-0.28300000000000003 -0.8800000000000001,-0.6810000000000002 -1.234,-1.195 c-0.35000000000000003,-0.516 -0.6290000000000001,-1.13 -0.8320000000000001,-1.8530000000000002 a8.754,8.754 0 0 1 -0.30700000000000005,-2.387 c0,-0.8700000000000001 0.10400000000000001,-1.6680000000000001 0.31600000000000006,-2.396 c0.21300000000000002,-0.7230000000000001 0.49100000000000005,-1.347 0.8460000000000001,-1.867 s0.7660000000000001,-0.926 1.234,-1.215 a2.7800000000000002,2.7800000000000002 0 0 1 1.483,-0.43500000000000005 c0.29900000000000004,0 0.5720000000000001,0.03300000000000001 0.8230000000000001,0.09900000000000003 c0.25,0.06600000000000002 0.48600000000000004,0.17 0.7040000000000001,0.30300000000000005 c0.21700000000000003,0.132 0.42600000000000005,0.29700000000000004 0.6140000000000001,0.49600000000000005 c0.18600000000000003,0.20400000000000001 0.37400000000000005,0.43600000000000005 0.5640000000000001,0.7000000000000001 zm-1.31,1.267 a2.127,2.127 0 0 0 -0.5810000000000001,-0.8180000000000001 a1.243,1.243 0 0 0 -0.809,-0.29700000000000004 c-0.265,0 -0.516,0.09400000000000003 -0.7520000000000001,0.28300000000000003 s-0.44300000000000006,0.458 -0.6280000000000001,0.804 c-0.18000000000000002,0.3450000000000001 -0.32600000000000007,0.7610000000000001 -0.43600000000000005,1.243 a7.405,7.405 0 0 0 -0.16000000000000003,1.612 c0,0.10400000000000001 0.005000000000000001,0.22200000000000003 0.010000000000000002,0.35000000000000003 c0.005000000000000001,0.127 0.015000000000000003,0.26 0.023000000000000007,0.39200000000000007 l0.028000000000000004,0.38300000000000006 c0.010000000000000002,0.12300000000000001 0.019000000000000003,0.22700000000000004 0.03300000000000001,0.30700000000000005 zm-2.77,6.003 c0.14600000000000002,0.3450000000000001 0.3410000000000001,0.6190000000000001 0.5810000000000001,0.8180000000000001 c0.24100000000000002,0.19800000000000004 0.511,0.29800000000000004 0.809,0.29800000000000004 c0.265,0 0.515,-0.09600000000000003 0.7510000000000001,-0.28400000000000003 s0.44500000000000006,-0.453 0.6290000000000001,-0.799 c0.18000000000000002,-0.3400000000000001 0.32600000000000007,-0.7560000000000001 0.43500000000000005,-1.238 a7.2940000000000005,7.2940000000000005 0 0 0 0.16100000000000003,-1.6070000000000002 c0,-0.10400000000000001 -0.005000000000000001,-0.22200000000000003 -0.010000000000000002,-0.35400000000000004 c-0.004000000000000001,-0.132 -0.014000000000000002,-0.265 -0.023000000000000007,-0.39300000000000007 l-0.028000000000000004,-0.37800000000000006 a13.012,13.012 0 0 0 -0.028000000000000004,-0.31200000000000006 zm13.528,-7.27 c0.36900000000000005,0.48700000000000004 0.6620000000000001,1.106 0.8790000000000001,1.867 c0.21800000000000003,0.7610000000000001 0.32700000000000007,1.612 0.32700000000000007,2.552 c0,0.979 -0.10900000000000001,1.8250000000000002 -0.32700000000000007,2.548 c-0.21700000000000003,0.7230000000000001 -0.506,1.322 -0.8640000000000001,1.795 c-0.35900000000000004,0.47900000000000004 -0.775,0.8330000000000001 -1.248,1.064 c-0.47300000000000003,0.23600000000000002 -0.9640000000000001,0.35000000000000003 -1.475,0.35000000000000003 a2.848,2.848 0 0 1 -1.5030000000000001,-0.42600000000000005 c-0.47300000000000003,-0.28300000000000003 -0.8790000000000001,-0.6810000000000002 -1.233,-1.195 c-0.35100000000000003,-0.516 -0.6290000000000001,-1.13 -0.8320000000000001,-1.8530000000000002 a8.714,8.714 0 0 1 -0.30800000000000005,-2.387 c0,-0.8700000000000001 0.10400000000000001,-1.6680000000000001 0.31600000000000006,-2.396 c0.21300000000000002,-0.7230000000000001 0.49200000000000005,-1.347 0.8470000000000001,-1.867 s0.7660000000000001,-0.926 1.233,-1.215 c0.468,-0.28800000000000003 0.9600000000000001,-0.43500000000000005 1.484,-0.43500000000000005 c0.29800000000000004,0 0.5710000000000001,0.03300000000000001 0.8220000000000001,0.09900000000000003 s0.48700000000000004,0.17 0.7040000000000001,0.30300000000000005 c0.21800000000000003,0.132 0.42600000000000005,0.29700000000000004 0.6140000000000001,0.49600000000000005 c0.18600000000000003,0.20400000000000001 0.37500000000000006,0.43600000000000005 0.5640000000000001,0.7000000000000001 zm-1.3090000000000002,1.267 a2.14,2.14 0 0 0 -0.5820000000000001,-0.8180000000000001 a1.243,1.243 0 0 0 -0.809,-0.29700000000000004 c-0.264,0 -0.515,0.09400000000000003 -0.7510000000000001,0.28300000000000003 s-0.44400000000000006,0.458 -0.6290000000000001,0.804 c-0.18000000000000002,0.3450000000000001 -0.32600000000000007,0.7610000000000001 -0.43500000000000005,1.243 a7.402,7.402 0 0 0 -0.16100000000000003,1.612 c0,0.10400000000000001 0.005000000000000001,0.22200000000000003 0.010000000000000002,0.35000000000000003 c0.005000000000000001,0.127 0.015000000000000003,0.26 0.023000000000000007,0.39200000000000007 l0.028000000000000004,0.38300000000000006 c0.010000000000000002,0.12300000000000001 0.020000000000000004,0.22700000000000004 0.03300000000000001,0.30700000000000005 zm-2.77,6.003 c0.14600000000000002,0.3450000000000001 0.3410000000000001,0.6190000000000001 0.5820000000000001,0.8180000000000001 c0.24000000000000002,0.19800000000000004 0.51,0.29800000000000004 0.808,0.29800000000000004 c0.265,0 0.516,-0.09600000000000003 0.7520000000000001,-0.28400000000000003 s0.44400000000000006,-0.453 0.6290000000000001,-0.799 c0.17900000000000002,-0.3400000000000001 0.32500000000000007,-0.7560000000000001 0.43500000000000005,-1.238 c0.10800000000000001,-0.48200000000000004 0.16000000000000003,-1.016 0.16000000000000003,-1.6070000000000002 c0,-0.10400000000000001 -0.004000000000000001,-0.22200000000000003 -0.009000000000000003,-0.35400000000000004 s-0.015000000000000003,-0.265 -0.024000000000000004,-0.39300000000000007 l-0.028000000000000004,-0.37800000000000006 c-0.009000000000000003,-0.11800000000000002 -0.019000000000000003,-0.22200000000000003 -0.027000000000000007,-0.31200000000000006 zm12.052,-8.621 v11.192 h-1.971 v-8.909 l-1.919,0.5810000000000001 l-0.48200000000000004,-1.229 l3.035,-1.6300000000000001 h1.3370000000000002 zm-90.628,-42.54 v-3.786 h3.469 v3.786 zm3.489,22.031 v-19.611 h3.323 v19.606 h-3.323 zm3.398,-22.031 v-3.786 h3.469 v3.786 z" id="svg_1" class=""/><path d="m66.93000640869141,0.0000015258789005656581 h-49.86 c-9.412,0 -17.07,7.279 -17.07,16.227 v23.545 c0,8.948 7.658,16.229 17.07,16.229 h3.93 v14 a3,3 0 0 0 5.306,1.921 l13.267,-15.921 h11.429 v-6 h-12.834 c-0.8910000000000001,0 -1.734,0.3960000000000001 -2.305,1.079 l-8.861,10.635 v-11.715 h-9.93 c-6.104,0 -11.07,-4.589 -11.07,-10.229 v-23.544 c0,-5.639 4.966,-10.227 11.07,-10.227 h49.859 c6.104,0 11.07,4.587 11.07,10.227 v23.545 c0,5.618 -4.929,10.189 -11,10.225 v6 c9.38,-0.037000000000000005 17,-7.299 17,-16.225 v-23.545 c-0.0010000000000000002,-8.948 -7.659,-16.227 -17.071,-16.227 z" id="svg_2" class=""/><path d="m122.93000640869141,35.0000015258789 h-33.93 v6 h33.93 c6.104,0 11.07,4.587 11.07,10.227 v23.545 c0,5.640000000000001 -4.966,10.229 -11.07,10.229 h-9.93 v11.714 l-8.861,-10.635 a3,3 0 0 0 -2.305,-1.079 h-28.764 c-6.104,0 -11.07,-4.589 -11.07,-10.229 v-23.545 c0,-5.617 4.929,-10.188 11,-10.223 v-6 c-9.38,0.037000000000000005 -17,7.298 -17,16.223 v23.545 c0,8.948 7.658,16.229 17.07,16.229 h27.358 l13.267,15.921 a3.001,3.001 0 0 0 5.306,-1.921 v-14 h3.93 c9.412,0 17.07,-7.28 17.07,-16.229 v-23.545 c-0.0010000000000000002,-8.948 -7.659,-16.227 -17.071,-16.227 z" id="svg_3" class=""/></g></svg>